<svg width="27" height="27" viewBox="0 0 27 27" fill="none" xmlns="http://www.w3.org/2000/svg">
<path d="M25.1506 17.125C25.1506 21.6976 21.4524 25.3958 16.8799 25.3958L18.1205 23.3281" stroke="white" stroke-width="1.7723" stroke-linecap="round" stroke-linejoin="round"/>
<path d="M1.52051 10.0364C1.52051 5.46384 5.21862 1.76562 9.79118 1.76562L8.55056 3.83332" stroke="white" stroke-width="1.7723" stroke-linecap="round" stroke-linejoin="round"/>
<path d="M25.1512 4.36501V4.49498C25.1512 4.82581 24.8913 5.08575 24.5605 5.08575H13.9267C13.5959 5.08575 13.3359 4.82581 13.3359 4.49498V4.36501C13.3359 2.2855 13.8558 1.76562 15.9589 1.76562H22.5282C24.6313 1.76562 25.1512 2.2855 25.1512 4.36501Z" fill="white"/>
<path d="M13.9267 6.26562C13.5959 6.26562 13.3359 6.52556 13.3359 6.85639V8.03793V9.20766C13.3359 11.2872 13.8558 11.807 15.9589 11.807H22.5282C24.6313 11.807 25.1512 11.2872 25.1512 9.20766V8.03793V6.85639C25.1512 6.52556 24.8913 6.26562 24.5605 6.26562H13.9267Z" fill="white"/>
<path d="M13.3358 17.9509V18.0809C13.3358 18.4117 13.0759 18.6717 12.745 18.6717H2.11128C1.78045 18.6717 1.52051 18.4117 1.52051 18.0809V17.9509C1.52051 15.8714 2.04039 15.3516 4.14342 15.3516H10.7128C12.8159 15.3516 13.3358 15.8714 13.3358 17.9509Z" fill="white"/>
<path d="M2.11128 19.8535C1.78045 19.8535 1.52051 20.1135 1.52051 20.4443V21.6258V22.7955C1.52051 24.8751 2.04039 25.3949 4.14342 25.3949H10.7128C12.8159 25.3949 13.3358 24.8751 13.3358 22.7955V21.6258V20.4443C13.3358 20.1135 13.0759 19.8535 12.745 19.8535H2.11128Z" fill="white"/>
</svg>
