<svg width="28" height="27" fill="none" xmlns="http://www.w3.org/2000/svg"><path d="M24.407 10.654a2.927 2.927 0 110 5.854 2.927 2.927 0 010-5.854zm0 10.406a2.927 2.927 0 110 5.854 2.927 2.927 0 010-5.854zm0-20.814a2.927 2.927 0 110 5.854 2.927 2.927 0 010-5.854zM3.594 10.654a2.927 2.927 0 110 5.854 2.927 2.927 0 010-5.854z" fill="#fff"/><path d="M23.106 12.604c.533 0 .975.442.975.975a.983.983 0 01-.975.976h-9.431v5.529c0 2.055.871 2.926 2.927 2.926h6.504c.533 0 .975.443.975.976a.983.983 0 01-.975.976h-6.504c-3.148 0-4.878-1.73-4.878-4.878v-5.529h-6.83a.983.983 0 01-.975-.976c0-.533.442-.975.976-.975h6.829V7.075c0-3.148 1.73-4.878 4.878-4.878h6.504c.533 0 .975.443.975.976a.983.983 0 01-.975.975h-6.504c-2.056 0-2.927.872-2.927 2.927v5.529h9.43z" fill="#fff"/></svg>