<svg width="30" height="31" fill="none" xmlns="http://www.w3.org/2000/svg"><path d="M15 24.914a9.333 9.333 0 100-18.667 9.333 9.333 0 000 18.667zm0 5.279c-.734 0-1.334-.547-1.334-1.28v-.107c0-.733.6-1.333 1.334-1.333.733 0 1.333.6 1.333 1.333 0 .734-.6 1.387-1.333 1.387zm9.52-3.76c-.347 0-.68-.133-.947-.387l-.173-.173c-.52-.52-.52-1.36 0-1.88.52-.52 1.36-.52 1.88 0l.173.173a1.328 1.328 0 01-.933 2.267zm-19.04 0c-.347 0-.68-.133-.947-.387-.52-.52-.52-1.36 0-1.88l.173-.173c.52-.52 1.36-.52 1.88 0 .52.52.52 1.36 0 1.88l-.173.173c-.253.254-.6.387-.933.387zm22.853-9.52h-.107c-.733 0-1.333-.6-1.333-1.333 0-.734.6-1.334 1.333-1.334.734 0 1.387.6 1.387 1.334 0 .733-.547 1.333-1.28 1.333zm-26.56 0h-.107c-.733 0-1.333-.6-1.333-1.333 0-.734.6-1.334 1.333-1.334.734 0 1.387.6 1.387 1.334 0 .733-.547 1.333-1.28 1.333zm22.573-9.347c-.346 0-.68-.133-.946-.386-.52-.52-.52-1.36 0-1.88l.173-.174c.52-.52 1.36-.52 1.88 0 .52.52.52 1.36 0 1.88l-.173.174a1.311 1.311 0 01-.934.386zm-18.693 0c-.347 0-.68-.133-.947-.386l-.173-.187c-.52-.52-.52-1.36 0-1.88.52-.52 1.36-.52 1.88 0l.173.173c.52.52.52 1.36 0 1.88-.253.267-.6.4-.933.4zM15 3.633c-.734 0-1.334-.547-1.334-1.28v-.107c0-.733.6-1.333 1.334-1.333.733 0 1.333.6 1.333 1.333 0 .734-.6 1.387-1.333 1.387z" fill="#fff"/></svg>