<svg width="27" height="28" fill="none" xmlns="http://www.w3.org/2000/svg"><path d="M17.275 18.574a8.533 8.533 0 11-17.067 0 8.533 8.533 0 1117.067 0z" fill="#fff"/><path d="M26.464 9.385c0 4.28-3.151 7.811-7.247 8.428v-.078c-.407-5.094-4.542-9.23-9.676-9.637h-.039C10.119 4.002 13.65.852 17.93.852a8.533 8.533 0 018.534 8.533zM4.921.852h-3.4c-.722 0-1.313.59-1.313 1.312v3.4c0 1.17 1.418 1.76 2.245.933l3.4-3.4c.814-.828.236-2.245-.932-2.245zM21.75 27.107h3.401c.722 0 1.313-.59 1.313-1.313v-3.4c0-1.168-1.418-1.759-2.245-.932l-3.4 3.4c-.814.827-.237 2.245.932 2.245z" fill="#fff"/></svg>