<svg width="29" height="27" fill="none" xmlns="http://www.w3.org/2000/svg"><path d="M11.973 15.18h4.057v9.452c0 1.392 1.733 2.048 2.652.998l9.938-11.29c.866-.985.17-2.52-1.142-2.52H23.42V2.366c0-1.392-1.733-2.048-2.652-.998l-9.938 11.29c-.853.985-.157 2.521 1.143 2.521zM10.897 3.981h-9.19a.992.992 0 01-.984-.985c0-.538.446-.984.984-.984h9.19c.538 0 .985.446.985.984a.992.992 0 01-.985.985zM9.584 24.987H1.707a.992.992 0 01-.984-.985c0-.538.446-.984.984-.984h7.877c.538 0 .985.446.985.984a.992.992 0 01-.985.985zM5.646 14.484H1.707a.992.992 0 01-.984-.985c0-.538.446-.984.984-.984h3.939c.538 0 .984.446.984.984a.992.992 0 01-.984.985z" fill="#fff"/></svg>