<svg width="19" height="19" fill="none" xmlns="http://www.w3.org/2000/svg"><path d="M18.667 6.98c0 .546-.453 1-1 1-.547 0-1-.454-1-1V4.06L11.08 9.646l5.587 5.587v-2.92c0-.546.453-1 1-1 .547 0 1 .454 1 1v5.333c0 .134-.027.254-.08.387-.107.24-.293.44-.547.547a.957.957 0 01-.386.08H12.32c-.546 0-1-.454-1-1 0-.547.454-1 1-1h2.92l-5.573-5.6-5.587 5.586H7c.547 0 1 .454 1 1 0 .547-.453 1-1 1H1.667a.956.956 0 01-.387-.08 1.043 1.043 0 01-.546-.546c-.04-.12-.067-.24-.067-.373v-5.334c0-.546.453-1 1-1 .547 0 1 .454 1 1v2.92l5.587-5.587L2.667 4.06v2.92c0 .546-.453 1-1 1-.547 0-1-.454-1-1V1.646c0-.133.027-.253.08-.386.107-.24.293-.44.547-.547.12-.04.24-.067.373-.067H7c.547 0 1 .454 1 1 0 .547-.453 1-1 1H4.08l5.587 5.587 5.587-5.587h-2.92c-.547 0-1-.453-1-1 0-.546.453-1 1-1h5.333a1.016 1.016 0 01.933.627c.04.12.067.24.067.373V6.98z" fill="#fff"/></svg>