<svg width="27" height="25" viewBox="0 0 27 25" fill="none" xmlns="http://www.w3.org/2000/svg">
<path d="M25.3766 24.7918H0.952023C0.451346 24.7918 0.0361328 24.3766 0.0361328 23.8758C0.0361328 23.3752 0.451346 22.96 0.952023 22.96H25.3766C25.8773 22.96 26.2925 23.3752 26.2925 23.8758C26.2925 24.3766 25.8773 24.7918 25.3766 24.7918Z" fill="white"/>
<path d="M10.416 2.8106V24.7927H15.9115V2.8106C15.9115 1.46729 15.3619 0.368164 13.7133 0.368164H12.6142C10.9655 0.368164 10.416 1.46729 10.416 2.8106Z" fill="white"/>
<path d="M2.17285 10.1377V24.7925H7.05773V10.1377C7.05773 8.79434 6.56926 7.69531 5.10376 7.69531H4.12682C2.66132 7.69531 2.17285 8.79434 2.17285 10.1377Z" fill="white"/>
<path d="M19.2705 16.2432V24.7918H24.1555V16.2432C24.1555 14.8999 23.667 13.8008 22.2015 13.8008H21.2245C19.7591 13.8008 19.2705 14.8999 19.2705 16.2432Z" fill="white"/>
</svg>
