<svg width="29" height="27" viewBox="0 0 29 27" fill="none" xmlns="http://www.w3.org/2000/svg">
<path d="M11.9735 15.1801H16.0301V24.6324C16.0301 26.0239 17.763 26.6804 18.6821 25.6301L28.6201 14.3398C29.4865 13.3552 28.7907 11.8192 27.4779 11.8192H23.4213V2.36686C23.4213 0.975307 21.6884 0.318864 20.7694 1.36915L10.8313 12.6594C9.97806 13.6441 10.6738 15.1801 11.9735 15.1801Z" fill="white"/>
<path d="M10.897 3.98095H1.70727C1.16898 3.98095 0.722656 3.53452 0.722656 2.99633C0.722656 2.45804 1.16898 2.01172 1.70727 2.01172H10.897C11.4353 2.01172 11.8816 2.45804 11.8816 2.99633C11.8816 3.53452 11.4353 3.98095 10.897 3.98095Z" fill="white"/>
<path d="M9.5842 24.9868H1.70727C1.16898 24.9868 0.722656 24.5405 0.722656 24.0022C0.722656 23.4639 1.16898 23.0176 1.70727 23.0176H9.5842C10.1224 23.0176 10.5688 23.4639 10.5688 24.0022C10.5688 24.5405 10.1224 24.9868 9.5842 24.9868Z" fill="white"/>
<path d="M5.64573 14.4839H1.70727C1.16898 14.4839 0.722656 14.0376 0.722656 13.4993C0.722656 12.9611 1.16898 12.5146 1.70727 12.5146H5.64573C6.18392 12.5146 6.63035 12.9611 6.63035 13.4993C6.63035 14.0376 6.18392 14.4839 5.64573 14.4839Z" fill="white"/>
</svg>
