<svg width="27" height="25" fill="none" xmlns="http://www.w3.org/2000/svg"><path d="M25.377 24.792H.952a.923.923 0 01-.916-.916c0-.5.415-.916.916-.916h24.425c.5 0 .916.415.916.916 0 .5-.416.916-.916.916z" fill="#fff"/><path d="M10.416 2.81v21.983h5.495V2.81c0-1.344-.55-2.443-2.198-2.443h-1.099c-1.649 0-2.198 1.1-2.198 2.443zm-8.243 7.328v14.655h4.885V10.138c0-1.344-.489-2.443-1.954-2.443h-.977c-1.466 0-1.954 1.1-1.954 2.443zm17.097 6.105v8.549h4.886v-8.549c0-1.343-.489-2.442-1.954-2.442h-.978c-1.465 0-1.954 1.099-1.954 2.442z" fill="#fff"/></svg>