<svg width="24" height="29" fill="none" xmlns="http://www.w3.org/2000/svg"><path d="M6 4.648h-.333V1.314c0-.546-.454-1-1-1-.547 0-1 .454-1 1v3.334h-.334C1.213 4.648 0 5.86 0 7.98v8c0 2.12 1.213 3.333 3.333 3.333h.334v8.667c0 .547.453 1 1 1 .546 0 1-.453 1-1v-8.667H6c2.12 0 3.333-1.213 3.333-3.333v-8C9.333 5.86 8.12 4.647 6 4.647zm14.667 5.333h-.333V1.314c0-.546-.454-1-1-1-.547 0-1 .454-1 1v8.667H18c-2.12 0-3.333 1.213-3.333 3.334v8c0 2.12 1.213 3.333 3.333 3.333h.334v3.333c0 .547.453 1 1 1 .546 0 1-.453 1-1v-3.333h.333c2.12 0 3.333-1.213 3.333-3.334v-8c0-2.12-1.213-3.333-3.333-3.333z" fill="#fff"/></svg>