<svg width="27" height="27" fill="none" xmlns="http://www.w3.org/2000/svg"><path d="M25.15 17.125a8.265 8.265 0 01-8.27 8.27l1.24-2.067M1.52 10.036a8.265 8.265 0 018.271-8.27l-1.24 2.067" stroke="#fff" stroke-width="1.772" stroke-linecap="round" stroke-linejoin="round"/><path d="M25.151 4.365v.13c0 .33-.26.59-.59.59H13.927a.585.585 0 01-.591-.59v-.13c0-2.08.52-2.6 2.623-2.6h6.57c2.102 0 2.622.52 2.622 2.6zM13.927 6.266a.585.585 0 00-.591.59v2.352c0 2.08.52 2.599 2.623 2.599h6.57c2.102 0 2.622-.52 2.622-2.6V6.858a.585.585 0 00-.59-.591H13.927zm-.591 11.684v.13c0 .332-.26.592-.591.592H2.111c-.33 0-.59-.26-.59-.591v-.13c0-2.08.52-2.6 2.622-2.6h6.57c2.103 0 2.623.52 2.623 2.6zM2.111 19.854c-.33 0-.59.26-.59.59v2.352c0 2.08.52 2.599 2.622 2.599h6.57c2.103 0 2.623-.52 2.623-2.6v-2.349a.585.585 0 00-.591-.591H2.111z" fill="#fff"/></svg>