<svg width="27" height="28" fill="none" xmlns="http://www.w3.org/2000/svg"><path d="M19.466.852h-3.414c-4.2 0-6.826 2.625-6.826 6.826v5.317h5.829l-2.718-2.717a.974.974 0 01-.289-.696c0-.25.092-.5.289-.696a.99.99 0 011.392 0l4.398 4.398a.99.99 0 010 1.392l-4.398 4.397a.99.99 0 01-1.392 0 .99.99 0 010-1.391l2.718-2.718h-5.83v5.317c0 4.201 2.626 6.827 6.827 6.827h3.4c4.201 0 6.827-2.626 6.827-6.827V7.678c.013-4.2-2.612-6.826-6.813-6.826z" fill="#fff"/><path d="M1.02 12.996a.992.992 0 00-.984.985c0 .538.446.984.985.984h8.205v-1.969H1.02z" fill="#fff"/></svg>