<svg width="22" height="25" fill="none" xmlns="http://www.w3.org/2000/svg"><path d="M19.22 2.936L12.45.401C11.75.142 10.604.142 9.903.4l-6.77 2.535C1.83 3.43.772 4.955.772 6.346v9.969c0 .997.652 2.314 1.452 2.904l6.77 5.059c1.193.898 3.15.898 4.344 0l6.769-5.059c.8-.603 1.452-1.907 1.452-2.904v-9.97c.012-1.39-1.046-2.916-2.338-3.409zm-7.126 10.708v3.237a.93.93 0 01-.923.923.93.93 0 01-.924-.923v-3.237c-1.243-.394-2.153-1.55-2.153-2.917a3.078 3.078 0 016.153 0c0 1.378-.91 2.523-2.153 2.917z" fill="#fff"/></svg>