<svg width="60" height="60" fill="none" xmlns="http://www.w3.org/2000/svg"><path d="M12 9a6 6 0 00-6 6v11.013a13.5 13.5 0 1121 16.971V45h21a6 6 0 006-6V15a6 6 0 00-6-6H12zm4.5 12a1.5 1.5 0 110-3h27a1.5 1.5 0 110 3h-27zM33 31.5a1.5 1.5 0 011.5-1.5h9a1.5 1.5 0 110 3h-9a1.5 1.5 0 01-1.5-1.5zM16.5 45a10.5 10.5 0 110-21 10.5 10.5 0 010 21zm-7.5.726A13.5 13.5 0 0016.5 48c2.775 0 5.355-.84 7.5-2.274V54a1.5 1.5 0 01-2.4 1.2l-4.2-3.15a1.5 1.5 0 00-1.8 0l-4.2 3.15A1.5 1.5 0 019 54v-8.274z" fill="#2EA844"/></svg>