<svg width="26" height="26" fill="none" xmlns="http://www.w3.org/2000/svg"><path fill-rule="evenodd" clip-rule="evenodd" d="M14.58 1.581a1.219 1.219 0 10-2.437 0v12.283L7.88 9.6a1.219 1.219 0 10-1.724 1.724l6.337 6.336a1.224 1.224 0 00.869.365 1.214 1.214 0 00.867-.363l6.338-6.338A1.219 1.219 0 1018.844 9.6l-4.263 4.264V1.58zM1.944 15.587c.673 0 1.22.546 1.22 1.219v5.075a1.319 1.319 0 001.318 1.318h17.762a1.319 1.319 0 001.319-1.318v-5.075a1.219 1.219 0 112.437 0v5.075a3.757 3.757 0 01-3.756 3.756H4.481A3.756 3.756 0 01.725 21.88v-5.075c0-.673.545-1.219 1.218-1.219z" fill="#636363"/></svg>