<svg width="60" height="60" fill="none" xmlns="http://www.w3.org/2000/svg"><path fill-rule="evenodd" clip-rule="evenodd" d="M35.698 5.38C34.773 5 33.598 5 31.251 5c-2.348 0-3.52 0-4.448.38a5 5 0 00-2.725 2.708c-.235.557-.325 1.21-.362 2.157a4.05 4.05 0 01-1.99 3.383 4.1 4.1 0 01-3.948.02c-.845-.445-1.457-.69-2.062-.77a5.075 5.075 0 00-3.725.99c-.795.604-1.383 1.614-2.555 3.632-1.175 2.017-1.76 3.025-1.893 4.012a4.967 4.967 0 001 3.698c.37.48.893.883 1.7 1.387 1.193.743 1.958 2.008 1.958 3.403s-.765 2.66-1.955 3.4c-.81.508-1.333.91-1.705 1.39a5 5 0 00-.998 3.697c.133.985.718 1.995 1.893 4.013 1.175 2.017 1.76 3.025 2.555 3.633a5.068 5.068 0 003.725.99c.605-.08 1.217-.325 2.062-.77a4.1 4.1 0 013.95.02c1.215.7 1.935 1.987 1.988 3.382.037.95.127 1.6.362 2.157a5.014 5.014 0 002.725 2.708c.925.38 2.1.38 4.448.38 2.347 0 3.522 0 4.447-.38a5.002 5.002 0 002.725-2.707c.235-.558.325-1.208.363-2.158.05-1.395.772-2.685 1.99-3.383a4.1 4.1 0 013.947-.02c.845.446 1.458.69 2.063.77a5.057 5.057 0 003.725-.99c.795-.604 1.382-1.614 2.555-3.632 1.175-2.017 1.76-3.025 1.892-4.013a5 5 0 00-1-3.697c-.37-.48-.892-.883-1.7-1.387-1.192-.743-1.957-2.008-1.957-3.403s.765-2.66 1.955-3.4c.81-.508 1.332-.91 1.705-1.39a5 5 0 00.997-3.698c-.132-.985-.717-1.995-1.892-4.012-1.175-2.018-1.76-3.025-2.555-3.633a5.075 5.075 0 00-3.725-.99c-.605.08-1.218.325-2.063.77a4.1 4.1 0 01-3.95-.02 4.05 4.05 0 01-1.987-3.382c-.038-.95-.128-1.6-.363-2.157a5.001 5.001 0 00-2.725-2.708zM31.251 37.5c4.175 0 7.557-3.358 7.557-7.5 0-4.142-3.385-7.5-7.557-7.5-4.173 0-7.558 3.358-7.558 7.5 0 4.142 3.385 7.5 7.558 7.5z" fill="#2EA844"/></svg>