<svg width="20" height="21" viewBox="0 0 20 21" fill="none" xmlns="http://www.w3.org/2000/svg">
<path d="M14.2934 1.96875H6.14127C3.89012 1.96875 2.06519 3.79368 2.06519 6.04484V14.197C2.06519 16.4481 3.89012 18.2731 6.14127 18.2731H14.2934C16.5446 18.2731 18.3695 16.4481 18.3695 14.197V6.04484C18.3695 3.79368 16.5446 1.96875 14.2934 1.96875Z" fill="white" stroke="white" stroke-width="1.30435" stroke-linecap="round" stroke-linejoin="round"/>
<path d="M13.4782 9.60872C13.5788 10.2872 13.4629 10.9801 13.147 11.5889C12.8311 12.1977 12.3312 12.6914 11.7186 12.9998C11.1059 13.3081 10.4117 13.4155 9.73454 13.3065C9.05733 13.1975 8.43178 12.8778 7.94679 12.3928C7.4618 11.9078 7.14208 11.2823 7.03312 10.6051C6.92415 9.92793 7.03148 9.23367 7.33985 8.62099C7.64821 8.00833 8.14191 7.50852 8.75072 7.19262C9.3595 6.87673 10.0525 6.76084 10.7309 6.86145C11.423 6.96407 12.0637 7.28655 12.5584 7.78126C13.0531 8.27597 13.3756 8.91667 13.4782 9.60872Z" fill="#D31431" stroke="#D31431" stroke-width="1.30435" stroke-linecap="round" stroke-linejoin="round"/>
<path d="M14.7009 5.63867H14.7091" stroke="#D31431" stroke-width="1.95652" stroke-linecap="round" stroke-linejoin="round"/>
</svg>
