<svg width="24" height="25" viewBox="0 0 24 25" fill="none" xmlns="http://www.w3.org/2000/svg">
<path d="M21.4039 8.38136C20.2584 3.34136 15.8621 1.07227 12.0002 1.07227C12.0002 1.07227 12.0002 1.07227 11.9893 1.07227C8.13842 1.07227 3.73115 3.33045 2.58569 8.37045C1.30933 13.9995 4.75661 18.7668 7.87661 21.7668C9.03297 22.8795 10.5166 23.4359 12.0002 23.4359C13.4839 23.4359 14.9675 22.8795 16.113 21.7668C19.233 18.7668 22.6802 14.0104 21.4039 8.38136ZM12.0002 13.8468C10.1021 13.8468 8.56388 12.3086 8.56388 10.4104C8.56388 8.51227 10.1021 6.97408 12.0002 6.97408C13.8984 6.97408 15.4366 8.51227 15.4366 10.4104C15.4366 12.3086 13.8984 13.8468 12.0002 13.8468Z" fill="#2EA844"/>
</svg>
