<svg width="128" height="107" fill="none" xmlns="http://www.w3.org/2000/svg"><path d="M.104.356L50.742.348l16.479.004c3.038 0 6.096.074 9.132-.037l.22-.034.084.118c-.363.601-1.08 1.15-1.58 1.658l-4.992 5.004c-3.589 3.574-7.074 7.267-10.685 10.813-4.425.121-8.874.032-13.303.032L21.833 17.9c.105 4.864-.04 9.738.018 14.604 9.564.167 19.162.03 28.73.003.034 5.673.036 11.346.005 17.018-3.365-.25-6.897-.02-10.283-.027-6.139-.013-12.301-.13-18.437.063-.013 5.167.122 10.396-.056 15.558 2.585.102 5.212-.05 7.801-.065 2.34-.013 4.68.106 7.021.085 2.781-.025 17.395-.488 18.858.143 1.18.51 2.322 1.757 3.356 2.54 4.946 3.748 9.797 7.63 14.7 11.434 1.364 1.043 2.71 2.11 4.037 3.199-2.799-.246-5.757-.067-8.57-.069l-16.186-.01-52.721.03L.104.358z" fill="#fff"/><path d="M106.302 30.707c.161-10.139-.134-20.288.038-30.426 2.15.342 4.863.103 7.074.103l14.569-.01-.013 82.082c-2.526-.154-5.112-.05-7.646-.052l-13.997.039a1420.63 1420.63 0 01.018-33.606h-26.14c.07 5.92.017 11.847.016 17.769l.006 9.462c-7.12-5.748-14.455-11.267-21.672-16.896.006-10.478-.166-20.988.015-31.463 1.91-2.024 3.947-3.955 5.916-5.923 5.252-5.248 10.578-10.442 15.75-15.768-.201 5.805-.019 11.678-.015 17.49.002 2.345.175 4.853-.08 7.18l26.161.019zm-86.468 72.702c1.402.925 2.739 1.367 4.438 1.277.806-.042 1.43-.25 1.961-.882.256-.304.55-.722.454-1.14-.318-1.403-4.742-1.945-5.938-2.675-.637-.39-1.15-.958-1.317-1.7-.185-.821.058-1.858.538-2.542.76-1.084 2.14-1.39 3.367-1.595 1.576-.095 2.934.264 4.407.793-.21.522-.376 1.07-.56 1.603-.78-.49-1.426-.661-2.325-.785-1.035-.143-2.092-.217-2.955.473-.43.344-.82.716-.888 1.286.4 1.73 4.804 2.076 6.258 3.205.575.447 1.011 1.065 1.078 1.805.074.839-.355 1.869-.921 2.475-.974 1.041-2.682 1.163-4.02 1.17-1.623-.037-2.858-.516-4.31-1.202l.733-1.566zm89.46 2.766c-1.702.032-3.242-.156-4.644-1.241a5.773 5.773 0 01-.446-.385 5.828 5.828 0 01-.93-1.138 5.848 5.848 0 01-.869-2.483c-.194-1.648.282-3.37 1.355-4.644 1.165-1.385 2.737-1.94 4.479-2.116 1.265-.106 2.787.273 3.855.933a6.171 6.171 0 01.477.327 5.013 5.013 0 01.441.374 5.28 5.28 0 01.587.638 5.572 5.572 0 01.484.72 6.16 6.16 0 01.37.783 6.524 6.524 0 01.179.55 6.687 6.687 0 01.174.894 6.474 6.474 0 01.022 1.244 6.482 6.482 0 01-.147.921 7.384 7.384 0 01-.175.598 5.993 5.993 0 01-.373.856 5.523 5.523 0 01-.318.535c-1.12 1.656-2.641 2.278-4.521 2.634zm-1.119-10.457c-1.308.184-2.348.635-3.148 1.745a4.89 4.89 0 00-.465.818 4.227 4.227 0 00-.169.44 4.399 4.399 0 00-.124.455 5.937 5.937 0 00-.077.464 4.626 4.626 0 00-.015.942c.007.078.016.156.026.234.011.078.024.155.038.232.208 1.143.844 2.193 1.804 2.857.989.683 2.113.829 3.284.705 1.22-.247 2.275-.887 2.948-1.952a4.598 4.598 0 00.232-.415 5.99 5.99 0 00.101-.215 5.36 5.36 0 00.235-.673 6.46 6.46 0 00.056-.231 6.41 6.41 0 00.044-.234 4.737 4.737 0 00-.194-2.304 4.417 4.417 0 00-.368-.785 4.418 4.418 0 00-1.159-1.277 4.479 4.479 0 00-.362-.24c-.784-.457-1.787-.635-2.687-.566zm-78.433.083c-.019-.43-.076-.877.058-1.291.333-.249.592-.192 1.001-.211 2.894.006 5.794.059 8.687.007l-.097 1.505-3.887-.017.005 6.722.003 3.525-1.795.001c.017-3.415.016-6.83-.005-10.245l-3.97.004zm12.052-1.481l4.445-.021c.645.012 1.329.032 1.955.192 1.139.29 2.122.956 2.682 2.006a4.076 4.076 0 01.386 2.684c-.025.13-.057.257-.095.384-.388 1.27-1.244 1.949-2.366 2.535.82 1.387 1.764 2.683 2.748 3.958l-1.852-.043c-.54-.635-1.018-1.338-1.512-2.011l-1.177-1.569c-1.12.049-2.25.005-3.371-.008l-.04 3.618-1.791-.004-.012-11.722zm2.12 1.41l-.237.128c-.273 1.595-.072 3.5-.06 5.132 1.66.039 3.516.306 4.985-.61.637-.65.95-1.133.929-2.067-.015-.674-.192-1.308-.713-1.767-1.162-1.023-3.433-.802-4.904-.815zm10.555 10.321c0-1.402-.138-11.187.066-11.764l1.683.059c0 1.422.219 11.228-.123 11.699l-1.626.006zM73.19 94.342l1.603-.028c.264.07.182.745.186.967.033 2.046-.53 6.967.91 8.49.619.653 1.482.866 2.354.88.82.013 1.623-.213 2.202-.821 1.529-1.605.962-7.248.938-9.543l1.803.073.011 2.619c-.034 2.347.482 5.843-1.202 7.738-.904 1.017-2.293 1.448-3.62 1.479-1.402.033-2.872-.369-3.89-1.375a3.955 3.955 0 01-.825-1.201 3.95 3.95 0 01-.168-.459c-.625-2.114-.307-6.492-.301-8.819zm44.763 11.702c-.086-2.398-.025-4.82-.026-7.222 0-1.47-.123-3.075.078-4.529.469-.003.943.03 1.412.045 2.421 2.57 4.38 5.62 6.737 8.259.164-2.718.027-5.533 0-8.258l1.808-.044c-.035 3.916.116 7.853-.02 11.766-.326-.002-.704.025-1.024-.029-.817-.136-6.261-7.375-7.15-8.537-.141 2.836-.017 5.74-.031 8.584l-1.784-.035zM0 106.025c.075-3.893.017-7.795.013-11.689 3.156-.027 7.242-.6 9.758 1.755 1.128 1.056 1.579 2.476 1.603 3.988.028 1.732-.534 3.004-1.718 4.235-2.571 2.276-6.465 1.738-9.656 1.711zm1.813-10.23c.001 2.93-.032 5.866.005 8.797 2.414.032 4.602.326 6.565-1.36.875-.94 1.215-2.088 1.16-3.363-.048-1.076-.39-2.088-1.197-2.832-1.7-1.566-4.395-1.247-6.533-1.243zm12.643 10.241c-.111-3.872.23-7.834-.071-11.687.626-.013 1.256.002 1.882.005-.119 3.879-.041 7.778-.03 11.66l-1.781.022zm45.715.02c-.15-3.898.117-7.808-.083-11.708 1.844-.043 3.735-.126 5.575-.016 1.172.07 2.607.32 3.4 1.267.529.632.645 1.53.524 2.324-.155 1.019-.945 1.523-1.725 2.067.76.343 1.539.71 2.019 1.425.569.847.44 1.776.27 2.719-.147.259-.287.495-.497.71-1.725 1.77-7.117 1.213-9.483 1.212zm1.769-10.349l-.003 3.653c1.612.04 3.764.333 5.244-.397.386-.466.778-1.148.71-1.777-.04-.382-.303-.67-.612-.873-1.355-.888-3.786-.615-5.339-.606zm-.01 5.019c-.007 1.299-.004 2.598.01 3.897 1.83.009 4.318.399 5.945-.5.405-.471.768-1.088.724-1.737-.027-.385-.251-.68-.551-.901-1.564-1.15-4.28-.689-6.128-.759zM85.346 95.8l.01-1.5c3.22.089 6.459.022 9.681.026l-.015 1.48-3.854-.003-.001 6.23-.004 3.999-1.817.022.074-10.231-4.074-.023zm12.175 10.248l-.013-11.69 1.823-.057a1147.79 1147.79 0 00-.008 11.736l-1.802.011z" fill="#fff"/></svg>