<svg width="80" height="67" fill="none" xmlns="http://www.w3.org/2000/svg"><path d="M.065.047L31.714.042l10.3.002c1.898 0 3.81.047 5.706-.023L47.858 0l.052.074c-.226.375-.675.718-.986 1.036l-3.12 3.127c-2.244 2.234-4.422 4.542-6.679 6.758-2.766.076-5.546.02-8.314.02l-15.165-.003c.065 3.04-.026 6.087.01 9.128 5.979.104 11.977.019 17.957.002.022 3.545.023 7.09.003 10.636-2.103-.156-4.31-.013-6.427-.017-3.837-.008-7.688-.081-11.523.04-.008 3.229.076 6.497-.035 9.723 1.615.064 3.258-.03 4.876-.04 1.463-.009 2.925.066 4.388.053 1.738-.016 10.872-.305 11.786.09.738.318 1.452 1.098 2.098 1.587 3.09 2.342 6.123 4.768 9.187 7.146a92.793 92.793 0 012.523 2c-1.749-.154-3.598-.043-5.356-.044l-10.116-.007-32.95.02L.064.047z" fill="#fff"/><path d="M66.439 19.016c.1-6.337-.084-12.68.023-19.016 1.344.214 3.04.064 4.422.064L79.99.058l-.01 51.302c-1.578-.096-3.194-.03-4.779-.032l-8.748.024c-.084-6.992-.07-14.013.012-21.004H50.128c.044 3.7.01 7.405.01 11.106l.004 5.914c-4.45-3.593-9.035-7.042-13.545-10.56.004-6.55-.104-13.118.01-19.665 1.193-1.264 2.466-2.472 3.697-3.701 3.282-3.28 6.611-6.527 9.843-9.856-.125 3.629-.011 7.299-.009 10.932.001 1.466.11 3.033-.05 4.487l16.35.012z" fill="#fff"/><path d="M12.397 64.456c.876.577 1.711.854 2.773.798.504-.027.894-.157 1.226-.552.16-.19.343-.45.284-.712-.2-.877-2.964-1.216-3.711-1.672-.399-.243-.72-.599-.824-1.063-.115-.513.037-1.16.336-1.588.475-.678 1.337-.87 2.104-.997.985-.06 1.834.165 2.755.495-.131.327-.235.67-.35 1.002-.487-.306-.891-.413-1.453-.49-.647-.09-1.308-.136-1.847.295-.27.215-.513.448-.555.804.25 1.081 3.003 1.297 3.911 2.003.36.28.633.666.674 1.128.046.524-.222 1.168-.576 1.547-.608.651-1.676.727-2.511.731-1.015-.023-1.787-.322-2.695-.75l.459-.98zm55.912 1.729c-1.064.02-2.026-.097-2.903-.775a3.604 3.604 0 01-.532-.508 3.533 3.533 0 01-.328-.444 3.606 3.606 0 01-.389-.833 3.847 3.847 0 01-.154-.72c-.121-1.029.176-2.105.847-2.901.728-.866 1.71-1.213 2.8-1.323.79-.066 1.741.17 2.409.583a3.571 3.571 0 011.405 1.61 3.572 3.572 0 01.261.876 3.8 3.8 0 01.021 1.164 3.877 3.877 0 01-.612 1.625c-.7 1.035-1.65 1.424-2.825 1.646zm-.7-6.535c-.817.115-1.467.397-1.967 1.09a2.96 2.96 0 00-.522 1.361 2.885 2.885 0 00.03.88 2.77 2.77 0 001.128 1.785c.618.427 1.32.519 2.052.44.763-.153 1.423-.553 1.843-1.219a2.882 2.882 0 00.313-.672 2.983 2.983 0 00.06-1.613 2.704 2.704 0 00-.457-.976 2.76 2.76 0 00-.8-.722c-.49-.286-1.117-.398-1.68-.354zm-49.02.05c-.012-.268-.048-.548.036-.807.208-.155.37-.12.626-.131 1.808.004 3.62.036 5.43.004l-.062.94-2.43-.01.004 4.202.002 2.202-1.122.001c.01-2.134.01-4.269-.003-6.403l-2.481.003zm7.532-.926l2.779-.012c.402.007.83.02 1.221.12.712.181 1.326.597 1.676 1.253a2.552 2.552 0 01.182 1.918c-.242.794-.777 1.219-1.479 1.584.513.868 1.103 1.677 1.718 2.474l-1.157-.026c-.338-.397-.637-.837-.946-1.258l-.735-.98c-.7.03-1.406.003-2.107-.005l-.025 2.26-1.12-.002-.007-7.326zm1.325.883l-.148.079c-.17.997-.045 2.188-.037 3.208 1.038.024 2.197.191 3.115-.382.398-.406.594-.708.58-1.291-.009-.422-.12-.818-.445-1.105-.726-.639-2.145-.501-3.065-.51zm6.597 6.449c0-.876-.086-6.991.041-7.352l1.052.037c0 .889.137 7.017-.076 7.312l-1.017.003zm11.701-7.318l1.001-.017c.166.044.115.465.117.604.02 1.279-.332 4.354.57 5.306.385.409.925.542 1.47.55.513.008 1.014-.133 1.376-.513.956-1.003.602-4.53.587-5.964l1.126.046.007 1.636c-.021 1.467.301 3.652-.751 4.837-.565.635-1.433.905-2.263.924-.876.02-1.795-.231-2.43-.86a2.426 2.426 0 01-.622-1.037c-.39-1.321-.192-4.057-.188-5.512zm27.976 7.314c-.053-1.499-.015-3.013-.015-4.513 0-.92-.078-1.923.048-2.831.293-.002.59.018.883.028 1.513 1.606 2.737 3.512 4.21 5.162.103-1.7.017-3.458 0-5.161l1.13-.028c-.022 2.448.073 4.908-.012 7.354-.204-.001-.44.015-.64-.018-.51-.085-3.913-4.61-4.469-5.336-.088 1.773-.01 3.587-.02 5.365l-1.114-.022zM0 66.09c.047-2.433.01-4.872.008-7.305 1.973-.017 4.526-.376 6.099 1.096.705.66.987 1.548 1.002 2.493.017 1.082-.334 1.877-1.074 2.646-1.607 1.423-4.04 1.087-6.035 1.07zm1.133-6.394c0 1.832-.02 3.667.003 5.499 1.51.02 2.876.203 4.104-.85.546-.588.759-1.306.724-2.102-.03-.673-.243-1.306-.748-1.77-1.062-.979-2.747-.78-4.083-.777zm7.902 6.403c-.07-2.42.144-4.896-.044-7.305.391-.008.784.002 1.176.003-.074 2.425-.026 4.862-.02 7.288l-1.112.014zm28.572.011c-.094-2.437.073-4.88-.052-7.318 1.153-.027 2.334-.079 3.484-.01.733.044 1.63.2 2.125.792.33.395.404.956.328 1.453-.097.636-.59.951-1.078 1.291.475.215.961.444 1.261.891.356.53.276 1.11.17 1.7-.092.161-.18.309-.311.443-1.079 1.106-4.448.758-5.927.757zm1.105-6.468l-.002 2.283c1.008.025 2.353.208 3.278-.249.241-.29.486-.717.444-1.11-.025-.239-.19-.42-.383-.546-.846-.555-2.366-.384-3.337-.378zm-.006 3.137c-.004.811-.002 1.623.006 2.435 1.144.006 2.7.25 3.716-.313.254-.294.48-.68.452-1.085-.016-.24-.157-.425-.344-.563-.977-.72-2.675-.43-3.83-.474zM53.341 59.7l.006-.936c2.013.055 4.037.013 6.051.015l-.01.926-2.408-.002v3.894l-.003 2.498-1.136.014.047-6.394-2.547-.015zm7.609 6.406l-.008-7.307 1.14-.035a726.12 726.12 0 00-.005 7.335l-1.126.007z" fill="#000"/></svg>