<svg width="24" height="25" fill="none" xmlns="http://www.w3.org/2000/svg"><path d="M11.088 15.782l-1.776 1.776a.965.965 0 01-1.354.01c-.105-.106-.21-.202-.317-.308a27.277 27.277 0 01-2.678-3.14c-.787-1.094-1.42-2.188-1.881-3.273C2.63 9.753 2.4 8.707 2.4 7.708c0-.653.115-1.277.345-1.853A4.419 4.419 0 013.85 4.252c.615-.605 1.287-.902 1.997-.902.27 0 .538.057.778.172.25.116.47.288.643.538L9.494 7.2c.173.24.298.46.384.671.087.202.135.403.135.586 0 .23-.068.46-.202.681a3.267 3.267 0 01-.537.682l-.73.758a.514.514 0 00-.154.384c0 .077.01.144.03.221.028.077.057.135.076.192.173.317.47.73.893 1.229.432.5.893 1.008 1.392 1.517.096.096.201.192.297.288a.962.962 0 01.01 1.373zm10.483 3.245c0 .268-.048.547-.144.816-.029.076-.058.153-.096.23a3.961 3.961 0 01-.653.98c-.47.518-.989.892-1.574 1.132-.01 0-.02.01-.029.01a4.85 4.85 0 01-1.843.355c-.98 0-2.026-.23-3.13-.701a16.862 16.862 0 01-3.302-1.9c-.375-.28-.749-.558-1.104-.855l3.139-3.14c.269.202.509.356.71.461.048.02.106.048.173.077a.663.663 0 00.24.039.528.528 0 00.394-.164l.73-.72c.24-.24.47-.422.69-.537.221-.135.442-.202.682-.202.183 0 .375.039.586.125.211.086.432.211.672.374l3.177 2.256c.25.173.423.375.528.615.096.24.154.48.154.749z" fill="#2EA844"/></svg>