<svg width="20" height="21" fill="none" xmlns="http://www.w3.org/2000/svg"><path d="M17.709 11.606c.35 0 .625-.284.625-.625a.619.619 0 00-.625-.625h-1.042V8.522h1.042c.35 0 .625-.275.625-.625a.624.624 0 00-.625-.625h-1.234a4.146 4.146 0 00-2.766-2.766V3.272a.63.63 0 00-.625-.625.63.63 0 00-.625.625v1.042h-1.834V3.272A.63.63 0 0010 2.647a.63.63 0 00-.625.625v1.042H7.55V3.272a.624.624 0 10-1.25 0v1.234a4.142 4.142 0 00-2.775 2.766H2.292a.624.624 0 100 1.25h1.042v1.834H2.292a.624.624 0 100 1.25h1.042v1.833H2.292a.624.624 0 100 1.25h1.233A4.125 4.125 0 006.3 17.456v1.233a.624.624 0 101.25 0v-1.041h1.834v1.041a.624.624 0 101.25 0v-1.041h1.825v1.041a.63.63 0 00.625.625.63.63 0 00.625-.625v-1.233a4.146 4.146 0 002.766-2.767h1.234c.35 0 .625-.283.625-.625a.619.619 0 00-.625-.625h-1.042v-1.833h1.042zm-3.325 1.258c0 1.375-1.125 2.5-2.5 2.5H8.117a2.507 2.507 0 01-2.5-2.5V9.097c0-1.375 1.125-2.5 2.5-2.5h3.767c1.375 0 2.5 1.125 2.5 2.5v3.767z" fill="#000"/><path d="M8.35 14.522h3.308a1.89 1.89 0 001.892-1.891V9.322a1.89 1.89 0 00-1.892-1.891H8.35a1.89 1.89 0 00-1.892 1.891v3.309c0 1.05.842 1.891 1.892 1.891z" fill="#000"/></svg>