<svg width="20" height="22" fill="none" xmlns="http://www.w3.org/2000/svg"><path d="M9.9 1.247c.28 0 .601.192.939.673.332.473.642 1.174.907 2.065.529 1.78.86 4.252.86 6.995 0 2.743-.331 5.217-.86 6.995-.265.892-.575 1.593-.907 2.066-.338.48-.659.673-.939.673-.28 0-.6-.192-.938-.673-.332-.473-.642-1.174-.907-2.066-.529-1.778-.86-4.252-.86-6.995 0-2.743.331-5.216.86-6.995.265-.89.575-1.592.907-2.065.337-.48.659-.673.938-.673z" stroke="#000" stroke-width="1.333"/><path d="M18.3 15.699c-.16.28-.513.47-1.096.53-.577.057-1.335-.021-2.227-.234-1.782-.424-4.053-1.371-6.386-2.745-2.333-1.373-4.273-2.905-5.524-4.267-.626-.681-1.072-1.311-1.312-1.85-.241-.544-.255-.952-.097-1.231.158-.28.512-.472 1.095-.53.577-.058 1.335.02 2.227.233 1.782.424 4.053 1.371 6.386 2.745 2.333 1.373 4.273 2.905 5.524 4.267.626.681 1.072 1.311 1.312 1.85.241.544.255.952.097 1.232z" stroke="#000" stroke-width="1.333"/><path d="M18.342 6.002c.158.28.144.688-.097 1.232-.24.538-.686 1.168-1.312 1.85-1.251 1.361-3.191 2.893-5.524 4.267-2.333 1.373-4.604 2.32-6.386 2.745-.892.212-1.65.29-2.228.233-.582-.059-.936-.25-1.094-.53-.158-.28-.144-.687.097-1.231.24-.539.686-1.17 1.312-1.85 1.251-1.362 3.191-2.894 5.524-4.268 2.333-1.373 4.604-2.32 6.386-2.744.892-.213 1.65-.291 2.227-.233.583.058.937.25 1.095.53z" stroke="#000" stroke-width="1.333"/></svg>