<svg width="20" height="21" fill="none" xmlns="http://www.w3.org/2000/svg"><path d="M11.667 3.414v6.925c0 .85-.692 1.542-1.542 1.542H2.5a.836.836 0 01-.833-.834V5.722c0-1.7 1.375-3.075 3.075-3.075h6.15c.433 0 .775.342.775.767z" fill="#000"/><path d="M17.917 13.898c.233 0 .417.183.417.416v.834c0 1.383-1.117 2.5-2.5 2.5 0-1.375-1.125-2.5-2.5-2.5a2.507 2.507 0 00-2.5 2.5H9.167c0-1.375-1.125-2.5-2.5-2.5a2.507 2.507 0 00-2.5 2.5 2.497 2.497 0 01-2.5-2.5V13.48c0-.458.375-.833.833-.833h7.917c1.15 0 2.083-.934 2.083-2.084V5.981c0-.459.375-.834.834-.834h.7c.6 0 1.15.325 1.45.842l.533.933a.21.21 0 01-.183.309c-1.15 0-2.084.933-2.084 2.083v2.5c0 1.15.934 2.084 2.084 2.084h2.083z" fill="#000"/><path d="M6.667 19.314a1.667 1.667 0 100-3.334 1.667 1.667 0 000 3.334zm6.667 0a1.667 1.667 0 100-3.334 1.667 1.667 0 000 3.334zm4.999-7.892v1.225h-2.5a.836.836 0 01-.833-.833v-2.5c0-.459.375-.834.833-.834h1.075l1.209 2.117c.141.25.216.534.216.825z" fill="#000"/></svg>