<svg width="20" height="21" fill="none" xmlns="http://www.w3.org/2000/svg"><path d="M12.717 19.314a.522.522 0 01-.158-.025 9.334 9.334 0 00-5.109 0 .582.582 0 01-.716-.4.575.575 0 01.4-.716 10.53 10.53 0 015.75 0 .579.579 0 01.4.716.603.603 0 01-.567.425zM16.009 6.28c-.867-1.75-2.542-3.04-4.484-3.466-2.033-.45-4.116.033-5.708 1.317a6.644 6.644 0 00-2.508 5.225c0 2.158 1.291 4.416 3.241 5.725v.691c-.008.234-.016.592.267.884.292.3.725.333 1.067.333h4.275c.45 0 .791-.125 1.025-.358.316-.325.308-.742.3-.967v-.583c2.583-1.742 4.208-5.417 2.525-8.8zm-4.575 4.384l-.892 1.55a.63.63 0 01-.542.317.629.629 0 01-.542-.933l.709-1.234h-.7c-.417 0-.758-.183-.942-.492-.183-.316-.166-.7.042-1.066l.892-1.55a.63.63 0 01.85-.234c.3.175.4.559.233.85l-.708 1.234h.7c.416 0 .758.183.941.491.184.317.167.709-.041 1.067z" fill="#000"/></svg>