<svg width="20" height="21" fill="none" xmlns="http://www.w3.org/2000/svg"><path d="M15.45 4.455L10.866 2.74c-.475-.175-1.25-.175-1.725 0L4.558 4.455c-.883.334-1.6 1.367-1.6 2.309v6.75c0 .675.442 1.566.983 1.966l4.584 3.425c.808.609 2.133.609 2.941 0l4.584-3.425c.541-.408.983-1.291.983-1.966v-6.75c.008-.942-.708-1.975-1.583-2.309zm-4.825 7.25v2.192a.63.63 0 01-.625.625.63.63 0 01-.625-.625v-2.192A2.081 2.081 0 017.916 9.73a2.084 2.084 0 014.167 0c0 .934-.617 1.709-1.458 1.975z" fill="#000"/></svg>