<svg width="20" height="21" fill="none" xmlns="http://www.w3.org/2000/svg"><path d="M10.625 1.605a.625.625 0 10-1.25 0v1.617l-.808-.808a.625.625 0 10-.884.883L9.375 4.99v2.24c0 .018 0 .035.002.052a3.746 3.746 0 00-2.268 1.31.63.63 0 00-.044-.028l-1.941-1.12-.62-2.312a.625.625 0 00-1.207.324l.296 1.104-1.4-.808a.625.625 0 10-.625 1.082l1.4.808-1.104.296a.625.625 0 00.324 1.207l2.311-.619 1.94 1.12c.016.01.03.017.046.024-.152.408-.235.85-.235 1.31 0 .461.083.903.235 1.31a.612.612 0 00-.045.024l-1.941 1.12-2.311-.618a.625.625 0 10-.324 1.207l1.104.296-1.4.808a.625.625 0 10.625 1.082l1.4-.808-.296 1.104a.625.625 0 001.208.323l.619-2.31 1.94-1.121a.612.612 0 00.045-.028 3.746 3.746 0 002.268 1.31.652.652 0 00-.002.051v2.242l-1.692 1.691a.625.625 0 00.884.884l.808-.808v1.616a.625.625 0 101.25 0V18.74l.808.808a.625.625 0 10.884-.884l-1.692-1.691V14.73c0-.017 0-.034-.002-.051a3.746 3.746 0 002.268-1.31l.044.028 1.94 1.12.62 2.311a.625.625 0 001.208-.323l-.296-1.104 1.4.808a.625.625 0 10.624-1.082l-1.4-.808 1.105-.296a.625.625 0 00-.324-1.207l-2.311.619-1.941-1.12a.653.653 0 00-.045-.025 3.74 3.74 0 00.235-1.31c0-.46-.083-.902-.235-1.31a.643.643 0 00.045-.023l1.941-1.12 2.311.618a.625.625 0 10.324-1.207l-1.104-.296 1.4-.808a.625.625 0 00-.625-1.082l-1.4.808.296-1.104a.625.625 0 10-1.208-.324l-.619 2.312-1.94 1.12a.658.658 0 00-.045.028 3.746 3.746 0 00-2.268-1.31.675.675 0 00.002-.052V4.99l1.692-1.693a.625.625 0 10-.884-.883l-.808.808V1.605z" fill="#000"/></svg>