<svg width="18" height="18" fill="none" xmlns="http://www.w3.org/2000/svg"><path d="M16.968 7.95l-1.134-1.317a1.847 1.847 0 01-.391-1.05V4.166c0-.883-.725-1.608-1.609-1.608h-1.416c-.325 0-.8-.175-1.05-.392L10.05 1.033c-.575-.492-1.517-.492-2.1 0L6.643 2.174c-.25.209-.725.384-1.05.384H4.15c-.883 0-1.608.725-1.608 1.608v1.425c0 .325-.175.792-.384 1.042L1.034 7.958c-.483.575-.483 1.508 0 2.083l1.125 1.325c.209.25.384.717.384 1.042v1.425c0 .883.725 1.608 1.608 1.608h1.442c.325 0 .8.175 1.05.392l1.316 1.133c.575.492 1.517.492 2.1 0l1.317-1.133c.25-.217.717-.392 1.05-.392h1.417c.883 0 1.608-.725 1.608-1.608v-1.417c0-.325.175-.8.392-1.05l1.133-1.316c.483-.575.483-1.525-.008-2.1zM12.9 9l-.975 2.966c-.125.492-.65.892-1.183.892H9.2c-.267 0-.642-.092-.808-.258l-1.225-.959c-.025.534-.267.758-.859.758h-.4c-.616 0-.866-.241-.866-.824V7.59c0-.583.25-.825.866-.825h.409c.616 0 .866.242.866.825v.3L8.8 5.49c.167-.258.592-.442.95-.3.392.133.642.567.558.95l-.2 1.3a.368.368 0 00.084.309.372.372 0 00.275.125h1.625c.316 0 .583.125.741.35.142.216.167.491.067.775z" fill="#000"/></svg>