<svg width="46" height="36" fill="none" xmlns="http://www.w3.org/2000/svg"><path d="M41.748 0l3.735 3.296c-2.392 2.1-4.345 4.126-5.859 6.079-1.465 1.904-2.393 3.345-2.783 4.321-.39.977-.757 2.149-1.099 3.516l.293.44c3.272 0 5.664.707 7.178 2.123 1.514 1.416 2.27 3.614 2.27 6.592 0 2.295-.83 4.37-2.49 6.226-1.611 1.855-3.638 2.783-6.079 2.783-2.783 0-5.103-.781-6.958-2.344-1.855-1.562-2.783-4.077-2.783-7.544 0-4.59 1.416-9.326 4.248-14.209C34.3 6.348 37.744 2.588 41.748 0zM14.575 0l3.736 3.296c-2.393 2.1-4.322 4.101-5.787 6.006-1.464 1.904-2.417 3.369-2.856 4.394a33.679 33.679 0 00-1.099 3.516l.293.44c3.272 0 5.664.707 7.178 2.123 1.514 1.416 2.27 3.614 2.27 6.592 0 2.295-.83 4.37-2.49 6.226-1.611 1.855-3.637 2.783-6.079 2.783-2.783 0-5.102-.781-6.958-2.344C.928 31.47 0 28.955 0 25.488c0-4.59 1.416-9.326 4.248-14.209C7.128 6.348 10.571 2.588 14.575 0z" fill="#fff"/></svg>