<svg width="21" height="21" viewBox="0 0 21 21" fill="none" xmlns="http://www.w3.org/2000/svg">
<path fill-rule="evenodd" clip-rule="evenodd" d="M10.0898 3.58594C10.5913 3.23232 11.2845 3.35221 11.6382 3.85373C11.9918 4.35524 11.8719 5.04846 11.3704 5.40209L6.02704 9.16971H18.9371C19.5507 9.16971 20.0482 9.66718 20.0482 10.2808C20.0482 10.8945 19.5507 11.3919 18.9371 11.3919H6.02691L11.3704 15.1597C11.8719 15.5133 11.9918 16.2065 11.6382 16.7081C11.2845 17.2096 10.5913 17.3295 10.0898 16.9758L1.89424 11.1971C1.85335 11.169 1.81443 11.1382 1.77774 11.105C1.74262 11.0732 1.70973 11.0394 1.6792 11.0038C1.51255 10.8094 1.41187 10.5569 1.41187 10.2808C1.41187 9.89853 1.60494 9.56133 1.89889 9.36141L10.0898 3.58594Z" fill="white"/>
</svg>
