<svg width="21" height="21" viewBox="0 0 21 21" fill="none" xmlns="http://www.w3.org/2000/svg">
<path fill-rule="evenodd" clip-rule="evenodd" d="M11.3887 3.39448C10.8729 3.03075 10.1599 3.15407 9.79616 3.66992C9.43244 4.18576 9.55573 4.89879 10.0716 5.26252L15.5677 9.13784H2.28861C1.65743 9.13784 1.14575 9.64952 1.14575 10.2807C1.14575 10.9119 1.65743 11.4236 2.28861 11.4236H15.5677L10.0716 15.2989C9.55573 15.6626 9.43244 16.3756 9.79616 16.8915C10.1599 17.4073 10.8729 17.5306 11.3887 17.1669L19.8174 11.2238C19.8581 11.1959 19.8969 11.1655 19.9335 11.1327C20.1674 10.9234 20.3146 10.6193 20.3146 10.2807C20.3146 10.002 20.213 9.73642 20.0341 9.5307C19.9984 9.48962 19.9595 9.45093 19.9179 9.415C19.8859 9.38742 19.8524 9.36157 19.8174 9.33762L11.3887 3.39448Z" fill="white"/>
</svg>
