<svg width="19" height="19" viewBox="0 0 19 19" fill="none" xmlns="http://www.w3.org/2000/svg">
<path fill-rule="evenodd" clip-rule="evenodd" d="M9.726 4.80726C9.32182 4.60518 8.83042 4.769 8.62833 5.17316C8.42622 5.57732 8.59003 6.06879 8.99422 6.27087L14.076 8.81179H1.17829C0.72642 8.81179 0.360107 9.1781 0.360107 9.62997C0.360107 10.0818 0.72642 10.4482 1.17829 10.4482H14.076L8.99422 12.9891C8.59003 13.1912 8.42622 13.6827 8.62833 14.0868C8.83042 14.4909 9.32182 14.6547 9.726 14.4526L17.8919 10.3697C17.951 10.3417 18.0062 10.3069 18.0564 10.2662C18.2416 10.1162 18.3601 9.88692 18.3601 9.62997C18.3601 9.42482 18.2846 9.2373 18.1599 9.0937C18.1286 9.05759 18.094 9.0241 18.0564 8.99373C18.0062 8.95307 17.951 8.91823 17.8919 8.89024L9.726 4.80726Z" fill="#D31431"/>
</svg>
