<svg width="20" height="21" fill="none" xmlns="http://www.w3.org/2000/svg"><path d="M19.988 8.53a7.343 7.343 0 00-.8-3.604 2.594 2.594 0 00-1.511-.873 71.39 71.39 0 00-7.358-.27 68.515 68.515 0 00-7.332.261 2.53 2.53 0 00-1.283.646C.913 5.415.825 6.654.737 7.702a40.487 40.487 0 000 5.656 8.25 8.25 0 00.264 1.746c.105.445.316.846.624 1.187.36.349.817.593 1.31.68a39.09 39.09 0 005.714.288c3.076.044 5.775 0 8.966-.244.51-.087.976-.323 1.345-.68.246-.245.43-.542.536-.874a9.2 9.2 0 00.457-2.967c.035-.49.035-3.44.035-3.963zM8.332 13.018V7.614l5.204 2.715c-1.46.803-3.384 1.71-5.204 2.688z" fill="#fff"/></svg>